<svg width="28" height="28" preserveAspectRatio="none" version="1.1" viewBox="0 0 28 28" xmlns="http://www.w3.org/2000/svg">
 <g transform="translate(-2,-2)">
  <path d="m16 2c3.713 0 7.274 1.475 9.9 4.1 2.624 2.627 4.1 6.188 4.1 9.9 0 7.732-6.268 14-14 14s-14-6.268-14-14 6.268-14 14-14zm0 1.267c-7.03 7e-3 -12.726 5.703-12.733 12.733 0 7.032 5.7 12.733 12.733 12.733 7.032 0 12.733-5.7 12.733-12.733 0-7.032-5.7-12.733-12.733-12.733zm8.552 6.262c0.26 0.261 0.26 0.683-1e-3 0.943l-12.034 12c-0.274 0.273-0.722 0.257-0.975-0.036l-4.126-4.773c-0.241-0.279-0.21-0.7 0.068-0.94 0.279-0.241 0.7-0.21 0.94 0.068l3.659 4.231 11.526-11.494c0.261-0.26 0.683-0.26 0.943 1e-3z"/>
 </g>
</svg>
