<svg width="28" height="28" preserveAspectRatio="none" version="1.1" viewBox="0 0 28 28" xmlns="http://www.w3.org/2000/svg">
 <g transform="matrix(.85097 0 0 .85097 -499.85 -1.6191)">
  <path transform="translate(591,5)" d="m16.386 3.938c2.34 0 4.32 2.199 5.878 4.269 0.9 1.147 3.049 4.258 3.049 6.564v3.341l-0.011 0.156c-0.102 0.92-0.86 1.642-1.8 1.684h-0.89c-0.064 0.63-0.305 1.202-0.67 1.669-0.61 0.871-1.621 1.442-2.766 1.442-1.775 0-3.23-1.37-3.365-3.11l-4.561-1e-3c-0.057 0.573-0.258 1.1-0.565 1.544-0.599 0.942-1.651 1.567-2.85 1.567-1.774 0-3.23-1.37-3.364-3.11l-0.905-1e-3c-0.697 0-1.878-0.366-1.878-2.166v-4.286c0-0.621 0.503-1.125 1.125-1.125h8.437v2.723c0 0.084 0.028 0.084 0.062 0.084 0.053-6e-3 0.103-0.03 0.14-0.068l3.736-3.937c0.033-0.025 0.052-0.063 0.052-0.104s-0.02-0.08-0.053-0.104l-3.622-3.476s-0.157-0.158-0.214-0.158c-0.056 0-0.101 0.056-0.101 0.242v2.548h-8.438c-0.62 0-1.124-0.504-1.124-1.125v-3.375c0-0.932 0.755-1.688 1.687-1.688zm-8.55 13.5c-1.243 0-2.25 1.007-2.25 2.25 0 0.774 0.391 1.458 0.988 1.862 0.364 0.227 0.797 0.35 1.256 0.331 0.522 0.021 1.011-0.14 1.404-0.43 0.518-0.412 0.852-1.049 0.852-1.764 0-1.242-1.008-2.25-2.25-2.25zm11.34 0c-1.243 0-2.25 1.007-2.25 2.25 0 0.593 0.23 1.134 0.606 1.536 0.426 0.407 1.013 0.64 1.644 0.601 0.667 0.04 1.285-0.225 1.713-0.678 0.335-0.394 0.537-0.903 0.537-1.46 0-1.242-1.008-2.25-2.25-2.25zm-2.79-12.432h-13.011c-0.166-6e-3 -0.328 0.057-0.446 0.174-0.119 0.117-0.183 0.278-0.178 0.445v3.414h7.458v-1.473c-0.031-0.332 0.077-0.662 0.3-0.911 0.221-0.249 0.537-0.394 0.87-0.4 0.389 0.011 0.753 0.192 0.996 0.495l3.572 3.465 0.091 0.098c0.2 0.24 0.3 0.55 0.274 0.864-0.024 0.3-0.158 0.58-0.376 0.787l-3.724 3.893c-0.235 0.242-0.557 0.38-0.894 0.382-0.304 0-0.594-0.122-0.806-0.339s-0.327-0.51-0.32-0.814v-1.62h-7.424v4.348c0 0.76 0.248 1.097 0.81 1.097h0.973c0.351-1.49 1.689-2.599 3.286-2.599 1.596 0 2.934 1.11 3.285 2.6h4.77c0.35-1.49 1.688-2.6 3.285-2.6 1.596 0 2.934 1.11 3.285 2.6h0.978c0.453-4e-3 0.819-0.37 0.822-0.822v-3.319c0-0.675-0.242-1.476-0.598-2.284h-3.936c-0.917 0-1.66-0.742-1.66-1.659v-5.32c-0.545-0.313-1.109-0.502-1.681-0.502zm2.75 1.278v4.544c0 0.326 0.265 0.59 0.59 0.59h3.405c-0.55-1-1.194-1.93-1.683-2.553-0.684-0.892-1.467-1.845-2.312-2.581z"/>
 </g>
 <g transform="translate(20.215 -.94803)">
  <path d="m-6.2152 0.94803c3.713 0 7.274 1.475 9.9 4.1 2.624 2.627 4.1 6.188 4.1 9.9 0 7.732-6.268 14-14 14-7.732 0-14-6.268-14-14 0-7.732 6.268-14 14-14zm0 1.267c-7.03 7e-3 -12.726 5.703-12.733 12.733 0 7.032 5.7 12.733 12.733 12.733 7.032 0 12.733-5.7 12.733-12.733 0-7.032-5.7-12.733-12.733-12.733z"/>
 </g>
</svg>
