<svg width="28" height="28" preserveAspectRatio="none" version="1.1" viewBox="0 0 28 28" xmlns="http://www.w3.org/2000/svg">
 <g transform="matrix(.85863 0 0 .85863 -20.344 -.27663)">
  <path transform="translate(26.667,3.606)" d="m9.936 2.744 3.283 2.083 3.288-2.081 9.007 3.462-3.14 2.412c0.018 0.05 0.032 0.101 0.041 0.153l1.967 5.186-1.952 0.787v4.393c5e-3 0.4-0.24 0.761-0.609 0.903l-8.148 3.2c-0.214 0.076-0.448 0.076-0.676-5e-3l-8.17-3.166c-0.363-0.143-0.603-0.493-0.608-0.89l-1e-3 -4.407-2.042-0.802 2.077-5.232-3.104-2.539zm3.925 12.221v7.069l7.514-2.95-1e-3 -3.912-6.327 2.556zm-1.056-0.131-1.1 2.88-6.431-2.526v3.925l7.531 2.917zm8.759-5.326-7.46 2.919c-0.052 0.02-0.097 0.051-0.139 0.101l1.645 3.834 7.418-2.995zm-16.477-6e-3 -1.538 3.875 7.55 2.965 1.497-3.916h-3e-3l-0.293-0.114-0.026-0.01v-1e-3zm8.249-3.582c-0.032 0-0.063 6e-3 -0.092 0.017l-7.213 2.8 6.647 2.588 0.14 0.047c0.384 0.108 0.795 0.09 1.171-0.055l7e-3 0.018 6.656-2.603-7.222-2.801c-0.021-0.01-0.044-0.013-0.094-0.011zm-3.512-1.997-6.614 2.601 1.804 1.476 6.97-2.706-2.16-1.37zm6.8-2e-3 -2.074 1.313 6.977 2.706 1.851-1.422-6.755-2.597z"/>
 </g>
 <g transform="translate(20.215 -.94803)">
  <path d="m-6.2152 0.94803c3.713 0 7.274 1.475 9.9 4.1 2.624 2.627 4.1 6.188 4.1 9.9 0 7.732-6.268 14-14 14-7.732 0-14-6.268-14-14 0-7.732 6.268-14 14-14zm0 1.267c-7.03 7e-3 -12.726 5.703-12.733 12.733 0 7.032 5.7 12.733 12.733 12.733 7.032 0 12.733-5.7 12.733-12.733 0-7.032-5.7-12.733-12.733-12.733z"/>
 </g>
</svg>
